<svg width="207" height="72" viewBox="0 0 207 72" fill="none" xmlns="http://www.w3.org/2000/svg">
<rect width="207" height="72" rx="36" fill="#9F9EBC"/>
<path d="M47.75 27.7734C47.7109 34.1016 52.0469 40.5078 57.1641 42.8125L55.2891 45.2344C51.3438 43.3008 47.9258 39.2188 46.2656 34.2578C44.6445 39.5117 41.2266 43.8867 37.1641 45.9375L35.2109 43.3594C40.3672 40.9766 44.6641 34.375 44.7031 27.7734V21.4453H47.75V27.7734ZM64.0391 18.4375V53.2422H60.9531V18.4375H64.0391ZM81.7344 24.8828C81.7344 29.4922 85.1328 33.7109 90.2891 35.5078L88.7266 37.8906C84.7617 36.4844 81.7344 33.6328 80.25 30.0391C78.7656 33.9844 75.582 37.0508 71.5 38.5547L69.8594 36.1719C75.0547 34.3359 78.6875 29.8438 78.7266 24.8828V23.3984H70.7969V20.8984H89.5469V23.3984H81.7344V24.8828ZM97.125 18.4375V27.6172H102.359V30.2344H97.125V39.375H94.0781V18.4375H97.125ZM97.125 41.2109V53.1641H94.0781V43.7109H74.3906V41.2109H97.125ZM131.422 18.4375V32.7734H137.242V35.3125H131.422V53.1641H128.375V18.4375H131.422ZM125.016 24.0234V26.5625H104.352V24.0234H113.297V18.8672H116.344V24.0234H125.016ZM114.859 29.4531C119.781 29.4531 123.336 32.7344 123.375 37.4219C123.336 42.1094 119.781 45.3906 114.859 45.3906C109.898 45.3906 106.305 42.1094 106.344 37.4219C106.305 32.7344 109.898 29.4531 114.859 29.4531ZM114.859 32.0312C111.617 32.0312 109.234 34.2969 109.273 37.4219C109.234 40.5859 111.617 42.8125 114.859 42.7734C118.062 42.8125 120.406 40.5859 120.445 37.4219C120.406 34.2969 118.062 32.0312 114.859 32.0312ZM167.828 18.4375V53.1641H164.742V18.4375H167.828ZM157.555 22.2266C157.516 32.2266 152.867 41.0547 141.227 46.6406L139.547 44.1406C148.941 39.6875 153.727 33.0273 154.43 24.7266H141.148V22.2266H157.555Z" fill="white"/>
</svg>
