<svg width="246" height="30" viewBox="0 0 246 30" fill="none" xmlns="http://www.w3.org/2000/svg">
<path d="M21.0273 0.90625V25.2695H18.8672V0.90625H21.0273ZM8.09375 2.79297C11.7031 2.82031 14.3008 6.10156 14.3008 11.2695C14.3008 16.4375 11.7031 19.7188 8.09375 19.7188C4.45703 19.7188 1.88672 16.4375 1.88672 11.2695C1.88672 6.10156 4.45703 2.82031 8.09375 2.79297ZM8.09375 4.70703C5.66016 4.73438 3.96484 7.30469 3.96484 11.2695C3.96484 15.2344 5.66016 17.8047 8.09375 17.8047C10.5273 17.8047 12.2227 15.2344 12.2227 11.2695C12.2227 7.30469 10.5273 4.73438 8.09375 4.70703ZM37.8438 3.3125V19.1172H26.6055V3.3125H37.8438ZM28.7109 5.03516V17.3672H35.7383V5.03516H28.7109ZM45.2266 0.90625V25.2695H43.0664V0.90625H45.2266ZM69.4805 2.41016V4.1875H59.9922V7.22266H68.7969V8.94531H59.9922V12.1719C65.1738 12.1992 68.0449 12.0762 71.4766 11.4883L71.6953 13.2383C68.1406 13.8672 65.1602 13.9219 59.8008 13.9219H57.832V2.41016H69.4805ZM76.4805 0.933594V15.4258H74.3477V0.933594H76.4805ZM76.4805 16.6289V24.8867H60.6758V16.6289H76.4805ZM62.7812 18.3516V23.1367H74.375V18.3516H62.7812ZM100.652 0.90625V25.2695H98.4922V0.90625H100.652ZM87.7188 2.79297C91.3281 2.82031 93.9258 6.10156 93.9258 11.2695C93.9258 16.4375 91.3281 19.7188 87.7188 19.7188C84.082 19.7188 81.5117 16.4375 81.5117 11.2695C81.5117 6.10156 84.082 2.82031 87.7188 2.79297ZM87.7188 4.70703C85.2852 4.73438 83.5898 7.30469 83.5898 11.2695C83.5898 15.2344 85.2852 17.8047 87.7188 17.8047C90.1523 17.8047 91.8477 15.2344 91.8477 11.2695C91.8477 7.30469 90.1523 4.73438 87.7188 4.70703ZM120.066 17.2305C120.066 19.377 121.215 21.6602 123.539 22.9727C125.836 21.5371 127.066 19.1172 127.066 17.2305V15.8906H129.172V17.2305C129.172 19.7188 131.004 22.2344 134.121 23.3008L133.055 24.8867C130.621 24.0254 128.912 22.3301 128.078 20.293C127.326 22.2617 125.836 24.1211 123.594 25.0781C121.229 24.1758 119.725 22.3848 119 20.3477C118.139 22.3164 116.457 24.0117 114.133 24.8867L113.039 23.3008C116.102 22.1523 117.961 19.5547 117.988 17.2305V15.8906H120.066V17.2305ZM131.906 0.933594V14.8242H129.773V0.933594H131.906ZM118.781 2.35547C122.473 2.35547 125.152 4.65234 125.152 8.04297C125.152 11.3789 122.473 13.6758 118.781 13.6758C115.09 13.6758 112.41 11.3789 112.41 8.04297C112.41 4.65234 115.09 2.35547 118.781 2.35547ZM118.781 4.1875C116.293 4.16016 114.488 5.77344 114.516 8.04297C114.488 10.2852 116.293 11.8711 118.781 11.8984C121.242 11.8711 123.047 10.2852 123.047 8.04297C123.047 5.77344 121.242 4.16016 118.781 4.1875ZM147.109 2.49219C152.195 2.49219 155.996 5.14453 155.996 9.16406C155.996 13.2109 152.195 15.8633 147.109 15.8359C142.023 15.8633 138.223 13.2109 138.223 9.16406C138.223 5.14453 142.023 2.49219 147.109 2.49219ZM147.109 4.24219C143.199 4.21484 140.246 6.26562 140.273 9.16406C140.246 12.1172 143.199 14.0859 147.109 14.0859C150.992 14.0859 153.918 12.1172 153.918 9.16406C153.918 6.26562 150.992 4.21484 147.109 4.24219ZM158.293 20.1836V21.9883H136.035V20.1836H158.293ZM180.305 0.933594V18.7617H178.172V0.933594H180.305ZM181.07 22.8906V24.6953H164.609V17.1211H166.742V22.8906H181.07ZM168.848 4.73438C168.82 8.42578 171.363 11.7617 174.973 13.0742L173.852 14.7969C171.035 13.7168 168.848 11.5293 167.781 8.72656C166.701 11.707 164.486 14.0996 161.656 15.2344L160.48 13.5664C164.172 12.1445 166.66 8.5625 166.66 4.73438V2.30078H168.848V4.73438ZM203.246 0.90625V10.8047H207.184V12.6094H203.246V25.2148H201.113V0.90625H203.246ZM196.957 3.53125C196.957 10.4219 193.73 16.6836 185.801 20.5938L184.598 18.8984C190.887 15.7676 194.305 11.0918 194.797 5.33594H185.719V3.53125H196.957ZM230.891 20.293V22.0977H208.633V20.293H214.156V13.7305C212.078 12.6504 210.82 10.9004 210.82 8.69922C210.82 4.92578 214.512 2.46484 219.707 2.4375C224.902 2.46484 228.594 4.92578 228.594 8.69922C228.594 10.8594 227.377 12.5957 225.367 13.6758V20.293H230.891ZM219.707 4.21484C215.715 4.1875 212.898 5.99219 212.898 8.69922C212.898 11.4062 215.715 13.2383 219.707 13.2383C223.672 13.2383 226.516 11.4062 226.516 8.69922C226.516 5.99219 223.672 4.1875 219.707 4.21484ZM216.262 20.293H223.207V14.4961C222.154 14.7832 220.979 14.9336 219.707 14.9336C218.463 14.9336 217.301 14.7969 216.262 14.5234V20.293ZM236.715 17.2852C236.742 13.6211 237.863 12.5 239.75 11.3516C240.871 10.668 241.746 9.57422 241.746 8.04297C241.746 6.18359 240.297 5.00781 238.492 5.00781C236.934 5.00781 235.375 5.9375 235.211 8.17969H232.723C232.859 4.87109 235.375 2.92969 238.492 2.92969C241.91 2.92969 244.152 5.14453 244.152 8.15234C244.152 10.2852 243.141 11.7891 241.445 12.8281C239.75 13.8672 239.121 14.9062 239.066 17.2852V17.4219H236.715V17.2852ZM237.973 23.1641C237.016 23.1641 236.195 22.3711 236.223 21.3867C236.195 20.4297 237.016 19.6367 237.973 19.6367C238.93 19.6367 239.723 20.4297 239.723 21.3867C239.723 22.3711 238.93 23.1641 237.973 23.1641Z" fill="#555555"/>
<path d="M0 27.4707H245.273V29.3711H0V27.4707Z" fill="#555555"/>
</svg>
