<svg width="1920" height="1080" viewBox="0 0 1920 1080" fill="none" xmlns="http://www.w3.org/2000/svg">
<rect width="1920" height="1080" fill="white"/>
<path d="M816.8 217.676C811.533 217.676 806.667 216.81 802.2 215.076C797.733 213.276 793.867 210.776 790.6 207.576C787.333 204.376 784.767 200.61 782.9 196.276C781.1 191.943 780.2 187.21 780.2 182.076C780.2 176.943 781.1 172.21 782.9 167.876C784.767 163.543 787.333 159.776 790.6 156.576C793.933 153.376 797.833 150.91 802.3 149.176C806.767 147.376 811.633 146.476 816.9 146.476C821.967 146.476 826.733 147.343 831.2 149.076C835.667 150.743 839.433 153.276 842.5 156.676L837.8 161.376C834.933 158.443 831.767 156.343 828.3 155.076C824.833 153.743 821.1 153.076 817.1 153.076C812.9 153.076 809 153.81 805.4 155.276C801.8 156.676 798.667 158.71 796 161.376C793.333 163.976 791.233 167.043 789.7 170.576C788.233 174.043 787.5 177.876 787.5 182.076C787.5 186.276 788.233 190.143 789.7 193.676C791.233 197.143 793.333 200.21 796 202.876C798.667 205.476 801.8 207.51 805.4 208.976C809 210.376 812.9 211.076 817.1 211.076C821.1 211.076 824.833 210.41 828.3 209.076C831.767 207.743 834.933 205.61 837.8 202.676L842.5 207.376C839.433 210.776 835.667 213.343 831.2 215.076C826.733 216.81 821.933 217.676 816.8 217.676ZM883.575 164.076C887.842 164.076 891.575 164.91 894.775 166.576C898.042 168.176 900.575 170.643 902.375 173.976C904.242 177.31 905.175 181.51 905.175 186.576V217.076H898.075V187.276C898.075 181.743 896.675 177.576 893.875 174.776C891.142 171.91 887.275 170.476 882.275 170.476C878.542 170.476 875.275 171.243 872.475 172.776C869.742 174.243 867.608 176.41 866.075 179.276C864.608 182.076 863.875 185.476 863.875 189.476V217.076H856.775V142.876H863.875V178.976L862.475 176.276C864.142 172.476 866.808 169.51 870.475 167.376C874.142 165.176 878.508 164.076 883.575 164.076ZM946.053 217.576C941.586 217.576 937.686 216.743 934.353 215.076C931.02 213.41 928.42 210.91 926.553 207.576C924.753 204.243 923.853 200.076 923.853 195.076V164.576H930.953V194.276C930.953 199.876 932.32 204.11 935.053 206.976C937.853 209.776 941.753 211.176 946.753 211.176C950.42 211.176 953.586 210.443 956.253 208.976C958.986 207.443 961.053 205.243 962.453 202.376C963.92 199.51 964.653 196.076 964.653 192.076V164.576H971.753V217.076H964.953V202.676L966.053 205.276C964.386 209.143 961.786 212.176 958.253 214.376C954.786 216.51 950.72 217.576 946.053 217.576ZM991.541 217.076V164.576H998.341V178.876L997.641 176.376C999.107 172.376 1001.57 169.343 1005.04 167.276C1008.51 165.143 1012.81 164.076 1017.94 164.076V170.976C1017.67 170.976 1017.41 170.976 1017.14 170.976C1016.87 170.91 1016.61 170.876 1016.34 170.876C1010.81 170.876 1006.47 172.576 1003.34 175.976C1000.21 179.31 998.641 184.076 998.641 190.276V217.076H991.541ZM1052.21 217.576C1047.01 217.576 1042.34 216.443 1038.21 214.176C1034.14 211.843 1030.94 208.676 1028.61 204.676C1026.27 200.61 1025.11 195.976 1025.11 190.776C1025.11 185.51 1026.27 180.876 1028.61 176.876C1030.94 172.876 1034.14 169.743 1038.21 167.476C1042.34 165.21 1047.01 164.076 1052.21 164.076C1056.67 164.076 1060.71 164.943 1064.31 166.676C1067.91 168.41 1070.74 171.01 1072.81 174.476L1067.51 178.076C1065.71 175.41 1063.47 173.443 1060.81 172.176C1058.14 170.91 1055.24 170.276 1052.11 170.276C1048.37 170.276 1045.01 171.143 1042.01 172.876C1039.01 174.543 1036.64 176.91 1034.91 179.976C1033.17 183.043 1032.31 186.643 1032.31 190.776C1032.31 194.91 1033.17 198.51 1034.91 201.576C1036.64 204.643 1039.01 207.043 1042.01 208.776C1045.01 210.443 1048.37 211.276 1052.11 211.276C1055.24 211.276 1058.14 210.643 1060.81 209.376C1063.47 208.11 1065.71 206.176 1067.51 203.576L1072.81 207.176C1070.74 210.576 1067.91 213.176 1064.31 214.976C1060.71 216.71 1056.67 217.576 1052.21 217.576ZM1112.77 164.076C1117.04 164.076 1120.77 164.91 1123.97 166.576C1127.24 168.176 1129.77 170.643 1131.57 173.976C1133.44 177.31 1134.37 181.51 1134.37 186.576V217.076H1127.27V187.276C1127.27 181.743 1125.87 177.576 1123.07 174.776C1120.34 171.91 1116.47 170.476 1111.47 170.476C1107.74 170.476 1104.47 171.243 1101.67 172.776C1098.94 174.243 1096.81 176.41 1095.27 179.276C1093.81 182.076 1093.07 185.476 1093.07 189.476V217.076H1085.97V142.876H1093.07V178.976L1091.67 176.276C1093.34 172.476 1096.01 169.51 1099.67 167.376C1103.34 165.176 1107.71 164.076 1112.77 164.076Z" fill="#281A47"/>
<g filter="url(#filter0_d_757_5644)">
<path d="M1086.27 135.2V92.8H1092.57V135.2H1086.27ZM1067.67 117V111.1H1111.17V117H1067.67Z" fill="#D5C1F9"/>
</g>
<path d="M629.42 285.11H635.23V348.53H629.42V285.11ZM601.84 290.01C611.22 290.01 617.94 298.62 617.94 312.06C617.94 325.57 611.22 334.18 601.84 334.18C592.53 334.18 585.81 325.57 585.81 312.06C585.81 298.62 592.53 290.01 601.84 290.01ZM601.84 295.26C595.68 295.26 591.34 301.84 591.34 312.06C591.34 322.35 595.68 329.07 601.84 329.07C608.07 329.07 612.34 322.35 612.34 312.06C612.34 301.84 608.07 295.26 601.84 295.26ZM661.965 306.6H667.705V318.57H661.965V306.6ZM685.205 306.6H690.945V318.57H685.205V306.6ZM647.825 316.47H705.015V321.16H647.825V316.47ZM676.385 325.92C689.965 325.92 698.085 329.91 698.085 337.12C698.085 344.33 689.965 348.39 676.385 348.39C662.805 348.39 654.685 344.33 654.685 337.12C654.685 329.91 662.805 325.92 676.385 325.92ZM676.385 330.4C666.515 330.4 660.565 332.85 660.565 337.12C660.565 341.46 666.515 343.84 676.385 343.84C686.325 343.84 692.205 341.46 692.205 337.12C692.205 332.85 686.325 330.4 676.385 330.4ZM676.455 286.3C690.175 286.3 698.715 290.71 698.715 298.13C698.715 305.48 690.175 309.82 676.455 309.82C662.665 309.82 654.195 305.48 654.195 298.13C654.195 290.71 662.665 286.3 676.455 286.3ZM676.455 290.85C666.375 290.85 660.145 293.51 660.145 298.13C660.145 302.68 666.375 305.34 676.455 305.34C686.535 305.34 692.765 302.68 692.765 298.13C692.765 293.51 686.535 290.85 676.455 290.85ZM755.549 284.97H761.359V319.9H755.549V284.97ZM758.909 300.16H770.739V305.06H758.909V300.16ZM721.179 323.12H761.359V337.26H727.059V344.96H721.319V333.06H755.689V327.53H721.179V323.12ZM721.319 343.28H763.669V347.76H721.319V343.28ZM712.429 290.85H749.809V295.4H712.429V290.85ZM731.119 298.2C740.219 298.2 746.239 302.19 746.239 308.63C746.239 315 740.219 318.92 731.119 318.92C721.879 318.92 715.929 315 715.929 308.63C715.929 302.19 721.879 298.2 731.119 298.2ZM731.119 302.47C725.239 302.47 721.459 304.85 721.459 308.63C721.459 312.34 725.239 314.72 731.119 314.72C736.929 314.72 740.709 312.34 740.709 308.63C740.709 304.85 736.929 302.47 731.119 302.47ZM728.179 284.48H733.989V294H728.179V284.48ZM798.644 314.44H803.754C817.404 314.44 824.894 314.16 833.784 312.62L834.414 317.24C825.244 318.85 817.544 319.06 803.754 319.06H798.644V314.44ZM798.644 289.03H828.744V293.72H804.384V316.82H798.644V289.03ZM802.494 301.49H826.994V306.18H802.494V301.49ZM840.994 285.25H846.874V322.91H840.994V285.25ZM805.994 326.06H846.874V347.62H805.994V326.06ZM841.134 330.75H811.664V342.93H841.134V330.75ZM887.958 286.23C901.888 286.23 910.218 290.15 910.218 297.22C910.218 304.29 901.888 308.21 887.958 308.21C873.958 308.21 865.698 304.29 865.698 297.22C865.698 290.15 873.958 286.23 887.958 286.23ZM887.958 290.64C877.598 290.64 871.648 293.02 871.648 297.22C871.648 301.42 877.598 303.8 887.958 303.8C898.248 303.8 904.198 301.42 904.198 297.22C904.198 293.02 898.248 290.64 887.958 290.64ZM859.328 312.41H916.518V317.1H859.328V312.41ZM866.258 322.49H909.238V336.77H872.138V344.47H866.398V332.57H903.498V326.97H866.258V322.49ZM866.398 343.21H911.128V347.76H866.398V343.21ZM974.523 300.09H990.483V304.92H974.523V300.09ZM957.933 289.03H962.623V296.8C962.623 309.05 955.763 319.27 945.193 323.54L942.183 318.92C951.563 315.42 957.933 306.46 957.933 296.8V289.03ZM959.053 289.03H963.743V297.01C963.743 305.83 969.903 314.16 979.073 317.52L975.923 322C965.843 318.08 959.053 308.28 959.053 297.01V289.03ZM988.313 285.25H994.123V332.57H988.313V285.25ZM953.453 342.3H995.663V347.06H953.453V342.3ZM953.453 327.32H959.263V344.54H953.453V327.32ZM1009.17 315.42H1013.23C1023.17 315.42 1029.05 315.21 1036.12 313.81L1036.68 318.57C1029.4 319.97 1023.38 320.25 1013.23 320.25H1009.17V315.42ZM1009.17 289.8H1033.67V294.56H1014.77V318.01H1009.17V289.8ZM1013.02 302.4H1032.9V306.95H1013.02V302.4ZM1054.25 285.18H1059.78V323.54H1054.25V285.18ZM1044.03 301.7H1056V306.46H1044.03V301.7ZM1040.32 286.37H1045.78V323.19H1040.32V286.37ZM1017.36 326.9H1059.78V348.46H1054.04V331.66H1017.36V326.9ZM1070.76 295.96H1102.12V300.72H1070.76V295.96ZM1086.44 304.92C1094.35 304.92 1100.09 310.87 1100.09 319.41C1100.09 327.88 1094.35 333.83 1086.44 333.83C1078.6 333.83 1072.86 327.88 1072.86 319.41C1072.86 310.87 1078.6 304.92 1086.44 304.92ZM1086.44 309.89C1081.61 309.89 1078.11 313.81 1078.11 319.41C1078.11 325.01 1081.61 328.93 1086.44 328.93C1091.34 328.93 1094.91 325.01 1094.91 319.41C1094.91 313.81 1091.34 309.89 1086.44 309.89ZM1118.85 285.18H1124.45V348.46H1118.85V285.18ZM1108.77 311.78H1120.74V316.61H1108.77V311.78ZM1105.34 286.58H1110.8V345.38H1105.34V286.58ZM1083.64 287H1089.38V298.9H1083.64V287ZM1160.64 291.41H1165.68V294.07C1165.68 305.41 1153.64 313.74 1140.9 315.91L1138.66 311.29C1149.79 309.68 1160.64 302.4 1160.64 294.07V291.41ZM1162.11 291.41H1167.08V294.07C1167.08 302.4 1178 309.68 1189.06 311.29L1186.89 315.91C1174.08 313.74 1162.11 305.41 1162.11 294.07V291.41ZM1160.85 324.31H1166.59V348.46H1160.85V324.31ZM1135.3 321.23H1192.49V325.99H1135.3V321.23ZM1140.62 289.1H1186.96V293.79H1140.62V289.1ZM1224.61 307.79H1236.72V312.62H1224.61V307.79ZM1212.78 291.13H1217.33V303.17C1217.33 316.4 1211.8 329.21 1202.56 334.88L1198.92 330.47C1207.6 325.36 1212.78 314.02 1212.78 303.17V291.13ZM1213.9 291.13H1218.38V302.96C1218.38 313.11 1223.14 323.89 1231.47 328.93L1228.11 333.48C1219.01 327.88 1213.9 315.28 1213.9 302.96V291.13ZM1247.85 285.18H1253.45V348.46H1247.85V285.18ZM1235.04 286.51H1240.5V345.31H1235.04V286.51ZM1278.09 317.73H1283.83V336.7H1278.09V317.73ZM1301.47 317.73H1307.28V336.7H1301.47V317.73ZM1264.09 335.58H1321.42V340.41H1264.09V335.58ZM1292.65 289.17C1306.02 289.17 1315.61 295.54 1315.61 305.48C1315.61 315.35 1306.02 321.72 1292.65 321.72C1279.21 321.72 1269.62 315.35 1269.62 305.48C1269.62 295.54 1279.21 289.17 1292.65 289.17ZM1292.65 293.79C1282.5 293.79 1275.22 298.41 1275.22 305.48C1275.22 312.48 1282.5 317.1 1292.65 317.1C1302.8 317.1 1310.01 312.48 1310.01 305.48C1310.01 298.41 1302.8 293.79 1292.65 293.79ZM1332.4 343.35C1331.37 343.35 1330.49 342.977 1329.74 342.23C1329.04 341.483 1328.69 340.573 1328.69 339.5C1328.69 338.38 1329.04 337.47 1329.74 336.77C1330.49 336.07 1331.37 335.72 1332.4 335.72C1333.43 335.72 1334.29 336.07 1334.99 336.77C1335.74 337.47 1336.11 338.38 1336.11 339.5C1336.11 340.573 1335.74 341.483 1334.99 342.23C1334.29 342.977 1333.43 343.35 1332.4 343.35Z" fill="black"/>
<defs>
<filter id="filter0_d_757_5644" x="1055.53" y="87.5958" width="67.79" height="66.6884" filterUnits="userSpaceOnUse" color-interpolation-filters="sRGB">
<feFlood flood-opacity="0" result="BackgroundImageFix"/>
<feColorMatrix in="SourceAlpha" type="matrix" values="0 0 0 0 0 0 0 0 0 0 0 0 0 0 0 0 0 0 127 0" result="hardAlpha"/>
<feOffset dy="6.94"/>
<feGaussianBlur stdDeviation="6.0725"/>
<feComposite in2="hardAlpha" operator="out"/>
<feColorMatrix type="matrix" values="0 0 0 0 0 0 0 0 0 0 0 0 0 0 0 0 0 0 0.25 0"/>
<feBlend mode="normal" in2="BackgroundImageFix" result="effect1_dropShadow_757_5644"/>
<feBlend mode="normal" in="SourceGraphic" in2="effect1_dropShadow_757_5644" result="shape"/>
</filter>
</defs>
</svg>
