<svg width="93" height="93" viewBox="0 0 93 93" fill="none" xmlns="http://www.w3.org/2000/svg">
<path d="M50.375 81.375H13.95C12.6659 81.375 11.625 80.3342 11.625 79.05V13.95C11.625 12.6659 12.6659 11.625 13.95 11.625H79.05C80.3342 11.625 81.375 12.6659 81.375 13.95V50.375" stroke="black" stroke-width="3" stroke-linecap="round" stroke-linejoin="round"/>
<path d="M11.625 62L38.75 50.375L60.0625 60.0625" stroke="black" stroke-width="3" stroke-linecap="round" stroke-linejoin="round"/>
<path d="M62 38.75C57.7197 38.75 54.25 35.2802 54.25 31C54.25 26.7198 57.7197 23.25 62 23.25C66.2803 23.25 69.75 26.7198 69.75 31C69.75 35.2802 66.2803 38.75 62 38.75Z" stroke="black" stroke-width="3" stroke-linecap="round" stroke-linejoin="round"/>
<path d="M73.625 73.625V85.25M62 73.625H73.625H62ZM85.25 73.625H73.625H85.25ZM73.625 73.625V62V73.625Z" stroke="black" stroke-width="3" stroke-linecap="round" stroke-linejoin="round"/>
</svg>
