<svg width="33" height="33" viewBox="0 0 33 33" fill="none" xmlns="http://www.w3.org/2000/svg">
<path d="M9.625 8.25H23.375H9.625Z" fill="#E8E8EF"/>
<path d="M9.625 8.25H23.375" stroke="#21272A" stroke-width="1.5" stroke-linecap="round" stroke-linejoin="round"/>
<path d="M9.625 12.375H23.375" stroke="#21272A" stroke-width="1.5" stroke-linecap="round" stroke-linejoin="round"/>
<path d="M12.375 23.375H20.625" stroke="#21272A" stroke-width="1.5" stroke-linecap="round" stroke-linejoin="round"/>
<path d="M4.125 16.5H28.875M4.125 16.5H3.575C3.11937 16.5 2.75 16.8693 2.75 17.325V29.425C2.75 29.8807 3.11937 30.25 3.575 30.25H29.425C29.8807 30.25 30.25 29.8807 30.25 29.425V17.325C30.25 16.8693 29.8807 16.5 29.425 16.5H28.875H4.125ZM4.125 16.5V3.575C4.125 3.11937 4.49437 2.75 4.95 2.75H28.05C28.5057 2.75 28.875 3.11937 28.875 3.575V16.5H4.125Z" stroke="#21272A" stroke-width="1.5"/>
</svg>
