<svg width="32" height="32" viewBox="0 0 32 32" fill="none" xmlns="http://www.w3.org/2000/svg">
<path d="M24 11.2C24 8.93682 23.1572 6.76634 21.6568 5.16603C20.1565 3.56571 18.1217 2.66667 16 2.66667C13.8783 2.66667 11.8434 3.56571 10.3431 5.16603C8.84285 6.76634 8 8.93682 8 11.2C8 21.1556 4 24 4 24H28C28 24 24 21.1556 24 11.2Z" stroke="#281A47" stroke-width="1.5" stroke-linecap="round" stroke-linejoin="round"/>
<path d="M18.3067 28C18.0723 28.4041 17.7359 28.7396 17.3309 28.9727C16.9261 29.2059 16.4672 29.3287 16 29.3287C15.5328 29.3287 15.0739 29.2059 14.6691 28.9727C14.2643 28.7396 13.9277 28.4041 13.6933 28" stroke="#281A47" stroke-width="1.5" stroke-linecap="round" stroke-linejoin="round"/>
</svg>
