<svg width="24" height="24" viewBox="0 0 24 24" fill="none" xmlns="http://www.w3.org/2000/svg">
<path d="M11.5 7C11.5 7.27614 11.7239 7.5 12 7.5C12.2761 7.5 12.5 7.27614 12.5 7C12.5 6.72386 12.2761 6.5 12 6.5C11.7239 6.5 11.5 6.72386 11.5 7Z" fill="#FF5E57" stroke="#FF5E57" stroke-width="1.5" stroke-linecap="round" stroke-linejoin="round"/>
<path d="M11.5 12C11.5 12.2761 11.7239 12.5 12 12.5C12.2761 12.5 12.5 12.2761 12.5 12C12.5 11.7239 12.2761 11.5 12 11.5C11.7239 11.5 11.5 11.7239 11.5 12Z" fill="#FEBB2E" stroke="#FEBB2E" stroke-width="1.5" stroke-linecap="round" stroke-linejoin="round"/>
<path d="M11.5 17C11.5 17.2761 11.7239 17.5 12 17.5C12.2761 17.5 12.5 17.2761 12.5 17C12.5 16.7239 12.2761 16.5 12 16.5C11.7239 16.5 11.5 16.7239 11.5 17Z" fill="#28C841" stroke="#28C841" stroke-width="1.5" stroke-linecap="round" stroke-linejoin="round"/>
</svg>
