<svg width="60" height="59" viewBox="0 0 60 59" fill="none" xmlns="http://www.w3.org/2000/svg">
<path fill-rule="evenodd" clip-rule="evenodd" d="M58.0718 30.4C58.0718 28.3262 57.8857 26.3322 57.5401 24.418H29.9961V35.7307H45.7355C45.0575 39.3864 42.9971 42.4837 39.8997 44.5575V51.8955H49.3513C54.8814 46.8041 58.0718 39.3066 58.0718 30.4Z" fill="#4285F4"/>
<path fill-rule="evenodd" clip-rule="evenodd" d="M29.9942 58.9838C37.8905 58.9838 44.5107 56.365 49.3495 51.8984L39.8978 44.5604C37.279 46.3152 33.9291 47.3521 29.9942 47.3521C22.3771 47.3521 15.9298 42.2075 13.63 35.2949H3.85938V42.8722C8.67159 52.4301 18.5619 58.9838 29.9942 58.9838Z" fill="#34A853"/>
<path fill-rule="evenodd" clip-rule="evenodd" d="M13.6313 35.2941C13.0464 33.5393 12.7141 31.665 12.7141 29.7374C12.7141 27.8099 13.0464 25.9355 13.6313 24.1808V16.6035H3.86066C1.87994 20.5517 0.75 25.0183 0.75 29.7374C0.75 34.4566 1.87994 38.9232 3.86066 42.8713L13.6313 35.2941Z" fill="#FBBC05"/>
<path fill-rule="evenodd" clip-rule="evenodd" d="M29.9942 12.122C34.288 12.122 38.1431 13.5975 41.174 16.4955L49.5622 8.10737C44.4974 3.3882 37.8772 0.490234 29.9942 0.490234C18.5619 0.490234 8.67159 7.04389 3.85938 16.6019L13.63 24.1791C15.9298 17.2665 22.3771 12.122 29.9942 12.122Z" fill="#EA4335"/>
</svg>
