<svg width="530" height="108" viewBox="0 0 530 108" fill="none" xmlns="http://www.w3.org/2000/svg">
<g filter="url(#filter0_d_757_5635)">
<rect x="8" y="4" width="514" height="92.003" rx="40" fill="#E8E8EF" fill-opacity="0.5" shape-rendering="crispEdges"/>
<path fill-rule="evenodd" clip-rule="evenodd" d="M91.12 50.5C91.12 48.94 90.98 47.44 90.72 46H70V54.51H81.84C81.33 57.26 79.78 59.59 77.45 61.15V66.67H84.56C88.72 62.84 91.12 57.2 91.12 50.5Z" fill="#4285F4"/>
<path fill-rule="evenodd" clip-rule="evenodd" d="M69.992 72.0036C75.932 72.0036 80.912 70.0336 84.552 66.6736L77.442 61.1536C75.472 62.4736 72.952 63.2536 69.992 63.2536C64.262 63.2536 59.412 59.3836 57.682 54.1836H50.332V59.8836C53.952 67.0736 61.392 72.0036 69.992 72.0036Z" fill="#34A853"/>
<path fill-rule="evenodd" clip-rule="evenodd" d="M57.69 54.1811C57.25 52.8611 57 51.4511 57 50.0011C57 48.5511 57.25 47.1411 57.69 45.8211V40.1211H50.34C48.85 43.0911 48 46.4511 48 50.0011C48 53.5511 48.85 56.9111 50.34 59.8811L57.69 54.1811Z" fill="#FBBC05"/>
<path fill-rule="evenodd" clip-rule="evenodd" d="M69.992 36.75C73.222 36.75 76.122 37.86 78.402 40.04L84.712 33.73C80.902 30.18 75.922 28 69.992 28C61.392 28 53.952 32.93 50.332 40.12L57.682 45.82C59.412 40.62 64.262 36.75 69.992 36.75Z" fill="#EA4335"/>
<path d="M125.129 44.4922C124.32 41.1172 121.473 37.918 116.938 37.918C111.699 37.918 107.938 42.2422 107.938 49.2734C107.938 56.2344 111.664 60.5938 117.078 60.5938C121.93 60.5938 125.34 57.2188 125.41 51.5938H117.535V49.9414H127.203V51.5586C127.203 58.2383 122.949 62.3516 117.078 62.3516C110.504 62.3516 106.145 57.1836 106.145 49.2734C106.145 41.3281 110.539 36.1953 116.938 36.1953C122.633 36.1953 126.254 40.3086 127.027 44.4922H125.129ZM139.332 62.3867C134.516 62.3867 131.07 58.2734 131.07 52.5078C131.07 46.7422 134.516 42.6289 139.332 42.6289C144.148 42.6289 147.594 46.7422 147.594 52.5078C147.594 58.2734 144.148 62.3867 139.332 62.3867ZM139.332 60.7695C143.305 60.7695 145.801 57.1133 145.801 52.5078C145.801 47.9375 143.305 44.2461 139.332 44.2461C135.359 44.2461 132.863 47.9727 132.863 52.5078C132.863 57.1133 135.359 60.7695 139.332 60.7695ZM159.23 62.3867C154.414 62.3867 150.969 58.2734 150.969 52.5078C150.969 46.7422 154.414 42.6289 159.23 42.6289C164.047 42.6289 167.492 46.7422 167.492 52.5078C167.492 58.2734 164.047 62.3867 159.23 62.3867ZM159.23 60.7695C163.203 60.7695 165.699 57.1133 165.699 52.5078C165.699 47.9375 163.203 44.2461 159.23 44.2461C155.258 44.2461 152.762 47.9727 152.762 52.5078C152.762 57.1133 155.258 60.7695 159.23 60.7695ZM178.953 69.5586C175.121 69.5586 172.098 67.9766 171.535 64.8125H173.398C173.926 66.9219 176.141 67.9766 178.953 67.9766C182.609 67.9766 184.789 66.1836 184.789 62.3867V57.7812H184.648C183.805 60.0312 181.766 61.8594 178.566 61.8594C174.031 61.8594 170.867 58.168 170.867 52.3672C170.867 46.6016 173.926 42.6289 178.602 42.6289C181.941 42.6289 183.77 44.7383 184.648 46.9883H184.824V42.9102H186.547V62.457C186.547 67.2383 183.453 69.5586 178.953 69.5586ZM178.742 60.2422C182.504 60.2422 184.824 57.2539 184.824 52.4023C184.824 47.7266 182.574 44.2461 178.742 44.2461C174.875 44.2461 172.66 47.832 172.66 52.4023C172.66 57.043 174.91 60.2422 178.742 60.2422ZM193.859 36.5469V62H192.102V36.5469H193.859ZM206.867 62.3867C201.629 62.3867 198.289 58.2734 198.289 52.543C198.289 46.8125 201.734 42.6289 206.516 42.6289C210.77 42.6289 214.531 46.0391 214.531 51.9102V52.8945H200.082C200.152 57.5 202.719 60.7695 206.867 60.7695C209.855 60.7695 211.508 59.0469 212.176 57.8164H214.074C213.266 60.207 210.699 62.3867 206.867 62.3867ZM200.117 51.3125H212.738C212.738 47.3398 210.066 44.2461 206.516 44.2461C202.965 44.2461 200.328 47.3574 200.117 51.3125ZM252.184 33.8398V64.6367H250.566V33.8398H252.184ZM246.066 34.7539V62.9141H244.414V51.875H237.875V50.4336H244.414V44.1055H238.367C236.82 49.3965 233.252 54.2832 227.398 57.8164L226.344 56.5508C233.322 52.3848 237.137 46.0215 237.559 39.3945H227.434V37.918H239.211C239.211 39.5176 239.053 41.0996 238.719 42.6641H244.414V34.7539H246.066ZM282.383 33.8398V52.2266H280.73V43.6484H273.559V42.207H280.73V33.8398H282.383ZM272.398 53.3516C278.656 53.3516 282.523 55.3906 282.523 58.9766C282.523 62.4922 278.656 64.5312 272.398 64.5664C266.07 64.5312 262.238 62.4922 262.273 58.9766C262.238 55.3906 266.07 53.3516 272.398 53.3516ZM272.398 54.7227C267.266 54.7578 263.891 56.375 263.891 58.9766C263.891 61.5078 267.266 63.125 272.398 63.125C277.496 63.125 280.871 61.5078 280.871 58.9766C280.871 56.375 277.496 54.7578 272.398 54.7227ZM267.266 39.8516C267.266 44.0703 270.957 47.9375 275.176 49.4492L274.262 50.8203C270.781 49.4844 267.723 46.6719 266.492 43.2266C265.244 47.1816 261.992 50.2754 258.371 51.7344L257.492 50.3633C261.746 48.7461 265.613 44.5977 265.613 39.8516V37.8125H258.125V36.3711H274.648V37.8125H267.266V39.8516ZM302.281 36.0898C308.68 36.125 313.32 39.3594 313.32 44.3164C313.32 49.2734 308.68 52.5078 302.281 52.5078C295.918 52.5078 291.242 49.2734 291.242 44.3164C291.242 39.3594 295.918 36.125 302.281 36.0898ZM302.281 37.4961C296.902 37.4961 292.754 40.3438 292.789 44.3164C292.754 48.2539 296.902 51.1367 302.281 51.1016C307.66 51.1367 311.773 48.2539 311.773 44.3164C311.773 40.3438 307.66 37.4961 302.281 37.4961ZM316.484 58.8008V60.2773H288.289V58.8008H316.484ZM347.598 59.0469V60.5234H319.402V59.0469H332.551V52.5078H323.094V43.5781H342.184V37.7773H323.023V36.3008H343.836V45.0195H324.746V51.0664H344.574V52.5078H334.238V59.0469H347.598ZM369.113 42.9805C369.113 48.5352 373.754 54.1953 377.832 56.1641L376.777 57.4648C373.385 55.707 369.781 51.7168 368.34 47.0586C366.951 51.9277 363.365 56.1289 359.973 57.957L358.848 56.5859C362.891 54.5469 367.496 48.7109 367.496 42.9805V36.6875H369.113V42.9805ZM384.02 33.8398V64.6719H382.332V33.8398H384.02ZM399.805 39.8867C399.805 44.2812 403.391 48.043 407.645 49.5547L406.801 50.8906C403.268 49.5723 400.262 46.8477 399.031 43.332C397.801 47.1992 394.619 50.1172 391.016 51.5234L390.066 50.2227C394.391 48.6055 398.188 44.668 398.188 39.9219V37.6719H390.734V36.2305H407.223V37.6719H399.805V39.8867ZM413.832 33.8398V42.418H418.754V43.8945H413.832V52.3672H412.18V33.8398H413.832ZM413.832 54.1953V64.6367H412.18V55.6719H394.074V54.1953H413.832ZM444.629 33.8398V46.918H450.148V48.3945H444.629V64.6367H442.977V33.8398H444.629ZM439.391 39.0078V40.4844H420.934V39.0078H429.441V34.1211H431.129V39.0078H439.391ZM430.355 43.543C434.609 43.5781 437.668 46.3906 437.668 50.4688C437.668 54.5469 434.609 57.3594 430.355 57.3594C426.066 57.3594 423.008 54.5469 423.008 50.4688C423.008 46.3906 426.066 43.5781 430.355 43.543ZM430.355 45.0195C427.016 45.0547 424.59 47.4102 424.59 50.4688C424.59 53.5273 427.016 55.8828 430.355 55.8477C433.66 55.8828 436.051 53.5273 436.086 50.4688C436.051 47.4102 433.66 45.0547 430.355 45.0195ZM477.395 33.8398V64.6367H475.742V33.8398H477.395ZM468.324 37.25C468.324 45.793 463.648 53.668 453.734 58.4844L452.82 57.0781C461.363 53 466.162 46.3379 466.637 38.6914H454.086V37.25H468.324Z" fill="black"/>
</g>
<defs>
<filter id="filter0_d_757_5635" x="0" y="0" width="530" height="108.004" filterUnits="userSpaceOnUse" color-interpolation-filters="sRGB">
<feFlood flood-opacity="0" result="BackgroundImageFix"/>
<feColorMatrix in="SourceAlpha" type="matrix" values="0 0 0 0 0 0 0 0 0 0 0 0 0 0 0 0 0 0 127 0" result="hardAlpha"/>
<feOffset dy="4"/>
<feGaussianBlur stdDeviation="4"/>
<feComposite in2="hardAlpha" operator="out"/>
<feColorMatrix type="matrix" values="0 0 0 0 0 0 0 0 0 0 0 0 0 0 0 0 0 0 0.1 0"/>
<feBlend mode="normal" in2="BackgroundImageFix" result="effect1_dropShadow_757_5635"/>
<feBlend mode="normal" in="SourceGraphic" in2="effect1_dropShadow_757_5635" result="shape"/>
</filter>
</defs>
</svg>
