<svg width="32" height="32" viewBox="0 0 32 32" fill="none" xmlns="http://www.w3.org/2000/svg">
<path d="M6.65625 25.3333V29.3333M2.65625 25.3333H6.65625H2.65625ZM10.6563 25.3333H6.65625H10.6563ZM6.65625 25.3333V21.3333V25.3333Z" stroke="#222222" stroke-width="1.5" stroke-linecap="round" stroke-linejoin="round"/>
<path d="M9.33301 2.66667H21.9997L27.9997 8.66667V25.3333" stroke="#222222" stroke-width="1.5" stroke-linecap="round" stroke-linejoin="round"/>
<path d="M14.6667 29.3333H22C23.1045 29.3333 24 28.4379 24 27.3333V11.6647C24 11.4525 23.9157 11.2491 23.7657 11.099L19.5676 6.90098C19.4176 6.75094 19.2141 6.66666 19.002 6.66666H6C4.89543 6.66666 4 7.56209 4 8.66666V17.3333" stroke="#222222" stroke-width="1.5" stroke-linecap="round" stroke-linejoin="round"/>
<path d="M18.667 11.2V7.13806C18.667 6.87772 18.8781 6.66666 19.1385 6.66666C19.2634 6.66666 19.3833 6.71633 19.4718 6.80473L23.8622 11.1953C23.9507 11.2837 24.0003 11.4036 24.0003 11.5286C24.0003 11.7889 23.7893 12 23.5289 12H19.467C19.0251 12 18.667 11.6418 18.667 11.2Z" fill="#222222" stroke="#222222" stroke-width="1.5" stroke-linecap="round" stroke-linejoin="round"/>
</svg>
