<svg width="192" height="213" viewBox="0 0 192 213" fill="none" xmlns="http://www.w3.org/2000/svg">
<path d="M62.0417 122.25V115.458C62.0417 96.7038 77.2454 81.5 96.0001 81.5C114.755 81.5 129.958 96.7038 129.958 115.458V122.25" stroke="#21272A" stroke-width="3" stroke-linecap="round"/>
<path d="M96 81.5C107.253 81.5 116.375 72.3781 116.375 61.125C116.375 49.8722 107.253 40.75 96 40.75C84.7469 40.75 75.625 49.8722 75.625 61.125C75.625 72.3781 84.7469 81.5 96 81.5Z" stroke="#21272A" stroke-width="3" stroke-linecap="round" stroke-linejoin="round"/>
<path d="M95.9999 149.417C133.509 149.417 163.917 119.009 163.917 81.5C163.917 43.9907 133.509 13.5834 95.9999 13.5834C58.4906 13.5834 28.0833 43.9907 28.0833 81.5C28.0833 119.009 58.4906 149.417 95.9999 149.417Z" stroke="#21272A" stroke-width="3"/>
<path d="M15.8438 181.406C15.8438 188.594 10.75 193.625 2.46875 195.812L1.28125 193.469C8.03125 191.719 12.125 188.219 12.6562 183.781H2.84375V181.406H15.8438ZM24.25 179.688V195.438H21.2812V179.688H24.25ZM24.25 196.688V207.281H5.90625V196.688H24.25ZM8.84375 199.062V204.906H21.3438V199.062H8.84375ZM51.4375 182.344V185.344C51.4062 188.875 51.4062 192.562 50.4062 197.906L47.5 197.594C48.4688 192.531 48.4688 188.781 48.4688 185.344V184.75H31.3125V182.344H51.4375ZM54.2188 201.406V203.875H28.6875V201.406H34.7188V192.344H37.6875V201.406H41.7188V192.344H44.625V201.406H54.2188ZM79.5 179.656V207.656H76.5312V179.656H79.5ZM56.5 200.031C58.7969 200.016 61.4375 200 64.1875 199.906V197.125C60.9062 196.703 58.7812 194.781 58.8125 192.031C58.7812 188.875 61.5312 186.781 65.5938 186.781C69.6875 186.781 72.5 188.875 72.5 192.031C72.5 194.75 70.375 196.656 67.125 197.094V199.812C69.7188 199.703 72.3438 199.5 74.8125 199.188L75.0312 201.406C68.8125 202.438 62.0312 202.5 56.9062 202.5L56.5 200.031ZM74.1875 183V185.375H57.0938V183H64.1875V179.719H67.1562V183H74.1875ZM65.5938 189.094C63.25 189.094 61.5938 190.25 61.625 192.031C61.5938 193.812 63.25 194.906 65.5938 194.906C68 194.906 69.6562 193.812 69.6562 192.031C69.6562 190.25 68 189.094 65.5938 189.094Z" fill="black"/>
<path d="M97.4375 179.188V208.188H94.4375V179.188H97.4375Z" fill="black"/>
<path d="M133.156 179.688V200.031H130.188V179.688H133.156ZM134 204.656V207.062H114.844V197.969H117.844V204.656H134ZM117.969 181.562C122.188 181.562 125.406 184.438 125.406 188.5C125.406 192.625 122.188 195.469 117.969 195.469C113.75 195.469 110.5 192.625 110.5 188.5C110.5 184.438 113.75 181.562 117.969 181.562ZM117.969 184.156C115.344 184.156 113.406 185.938 113.406 188.5C113.406 191.125 115.344 192.875 117.969 192.875C120.531 192.875 122.5 191.125 122.5 188.5C122.5 185.938 120.531 184.156 117.969 184.156ZM160.281 192.562V194.938H151.812V201.781H163.219V204.219H137.594V201.781H148.875V194.938H140.781V181.812H160.031V184.219H143.75V192.562H160.281ZM175 187.906C175 192.344 177.906 197.281 182.156 199.281L180.469 201.594C177.328 200.078 174.844 196.922 173.594 193.25C172.297 197.266 169.672 200.719 166.469 202.312L164.719 199.969C168.969 197.938 172.062 192.656 172.062 187.906V184.938H165.75V182.469H181.094V184.938H175V187.906ZM187.062 179.656V190.75H191.562V193.25H187.062V207.656H184.094V179.656H187.062Z" fill="#281A47"/>
</svg>
