<svg width="164" height="163" viewBox="0 0 164 163" fill="none" xmlns="http://www.w3.org/2000/svg">
<path d="M48.0417 122.25V115.458C48.0417 96.7038 63.2454 81.5 82.0001 81.5C100.755 81.5 115.958 96.7038 115.958 115.458V122.25" stroke="#21272A" stroke-width="3" stroke-linecap="round"/>
<path d="M82 81.5C93.2531 81.5 102.375 72.3781 102.375 61.125C102.375 49.8722 93.2531 40.75 82 40.75C70.7469 40.75 61.625 49.8722 61.625 61.125C61.625 72.3781 70.7469 81.5 82 81.5Z" stroke="#21272A" stroke-width="3" stroke-linecap="round" stroke-linejoin="round"/>
<path d="M81.9999 149.417C119.509 149.417 149.917 119.009 149.917 81.5C149.917 43.9907 119.509 13.5834 81.9999 13.5834C44.4906 13.5834 14.0833 43.9907 14.0833 81.5C14.0833 119.009 44.4906 149.417 81.9999 149.417Z" stroke="#21272A" stroke-width="3"/>
</svg>
