<svg width="200" height="85" viewBox="0 0 200 85" fill="none" xmlns="http://www.w3.org/2000/svg">
<path d="M22.572 71.324C19.728 71.324 17.1 70.856 14.688 69.92C12.276 68.948 10.188 67.598 8.424 65.87C6.66 64.142 5.274 62.108 4.266 59.768C3.294 57.428 2.808 54.872 2.808 52.1C2.808 49.328 3.294 46.772 4.266 44.432C5.274 42.092 6.66 40.058 8.424 38.33C10.224 36.602 12.33 35.27 14.742 34.334C17.154 33.362 19.782 32.876 22.626 32.876C25.362 32.876 27.936 33.344 30.348 34.28C32.76 35.18 34.794 36.548 36.45 38.384L33.912 40.922C32.364 39.338 30.654 38.204 28.782 37.52C26.91 36.8 24.894 36.44 22.734 36.44C20.466 36.44 18.36 36.836 16.416 37.628C14.472 38.384 12.78 39.482 11.34 40.922C9.9 42.326 8.766 43.982 7.938 45.89C7.146 47.762 6.75 49.832 6.75 52.1C6.75 54.368 7.146 56.456 7.938 58.364C8.766 60.236 9.9 61.892 11.34 63.332C12.78 64.736 14.472 65.834 16.416 66.626C18.36 67.382 20.466 67.76 22.734 67.76C24.894 67.76 26.91 67.4 28.782 66.68C30.654 65.96 32.364 64.808 33.912 63.224L36.45 65.762C34.794 67.598 32.76 68.984 30.348 69.92C27.936 70.856 25.344 71.324 22.572 71.324ZM58.6305 42.38C60.9345 42.38 62.9505 42.83 64.6785 43.73C66.4425 44.594 67.8105 45.926 68.7825 47.726C69.7905 49.526 70.2945 51.794 70.2945 54.53V71H66.4605V54.908C66.4605 51.92 65.7045 49.67 64.1925 48.158C62.7165 46.61 60.6285 45.836 57.9285 45.836C55.9125 45.836 54.1485 46.25 52.6365 47.078C51.1605 47.87 50.0085 49.04 49.1805 50.588C48.3885 52.1 47.9925 53.936 47.9925 56.096V71H44.1585V30.932H47.9925V50.426L47.2365 48.968C48.1365 46.916 49.5765 45.314 51.5565 44.162C53.5365 42.974 55.8945 42.38 58.6305 42.38ZM92.3687 71.27C89.9567 71.27 87.8507 70.82 86.0507 69.92C84.2507 69.02 82.8467 67.67 81.8387 65.87C80.8667 64.07 80.3807 61.82 80.3807 59.12V42.65H84.2147V58.688C84.2147 61.712 84.9527 63.998 86.4287 65.546C87.9407 67.058 90.0467 67.814 92.7467 67.814C94.7267 67.814 96.4367 67.418 97.8767 66.626C99.3527 65.798 100.469 64.61 101.225 63.062C102.017 61.514 102.413 59.66 102.413 57.5V42.65H106.247V71H102.575V63.224L103.169 64.628C102.269 66.716 100.865 68.354 98.9567 69.542C97.0847 70.694 94.8887 71.27 92.3687 71.27ZM116.932 71V42.65H120.604V50.372L120.226 49.022C121.018 46.862 122.35 45.224 124.222 44.108C126.094 42.956 128.416 42.38 131.188 42.38V46.106C131.044 46.106 130.9 46.106 130.756 46.106C130.612 46.07 130.468 46.052 130.324 46.052C127.336 46.052 124.996 46.97 123.304 48.806C121.612 50.606 120.766 53.18 120.766 56.528V71H116.932ZM149.692 71.27C146.884 71.27 144.364 70.658 142.132 69.434C139.936 68.174 138.208 66.464 136.948 64.304C135.688 62.108 135.058 59.606 135.058 56.798C135.058 53.954 135.688 51.452 136.948 49.292C138.208 47.132 139.936 45.44 142.132 44.216C144.364 42.992 146.884 42.38 149.692 42.38C152.104 42.38 154.282 42.848 156.226 43.784C158.17 44.72 159.7 46.124 160.816 47.996L157.954 49.94C156.982 48.5 155.776 47.438 154.336 46.754C152.896 46.07 151.33 45.728 149.638 45.728C147.622 45.728 145.804 46.196 144.184 47.132C142.564 48.032 141.286 49.31 140.35 50.966C139.414 52.622 138.946 54.566 138.946 56.798C138.946 59.03 139.414 60.974 140.35 62.63C141.286 64.286 142.564 65.582 144.184 66.518C145.804 67.418 147.622 67.868 149.638 67.868C151.33 67.868 152.896 67.526 154.336 66.842C155.776 66.158 156.982 65.114 157.954 63.71L160.816 65.654C159.7 67.49 158.17 68.894 156.226 69.866C154.282 70.802 152.104 71.27 149.692 71.27ZM182.398 42.38C184.702 42.38 186.718 42.83 188.446 43.73C190.21 44.594 191.578 45.926 192.55 47.726C193.558 49.526 194.062 51.794 194.062 54.53V71H190.228V54.908C190.228 51.92 189.472 49.67 187.96 48.158C186.484 46.61 184.396 45.836 181.696 45.836C179.68 45.836 177.916 46.25 176.404 47.078C174.928 47.87 173.776 49.04 172.948 50.588C172.156 52.1 171.76 53.936 171.76 56.096V71H167.926V30.932H171.76V50.426L171.004 48.968C171.904 46.916 173.344 45.314 175.324 44.162C177.304 42.974 179.662 42.38 182.398 42.38Z" fill="#281A47"/>
<g filter="url(#filter0_d_387_1374)">
<path d="M167.824 26.548V3.652H171.226V26.548H167.824ZM157.78 16.72V13.534H181.27V16.72H157.78Z" fill="#281A47"/>
</g>
<defs>
<filter id="filter0_d_387_1374" x="150.78" y="0.651993" width="37.49" height="36.896" filterUnits="userSpaceOnUse" color-interpolation-filters="sRGB">
<feFlood flood-opacity="0" result="BackgroundImageFix"/>
<feColorMatrix in="SourceAlpha" type="matrix" values="0 0 0 0 0 0 0 0 0 0 0 0 0 0 0 0 0 0 127 0" result="hardAlpha"/>
<feOffset dy="4"/>
<feGaussianBlur stdDeviation="3.5"/>
<feComposite in2="hardAlpha" operator="out"/>
<feColorMatrix type="matrix" values="0 0 0 0 0 0 0 0 0 0 0 0 0 0 0 0 0 0 0.25 0"/>
<feBlend mode="normal" in2="BackgroundImageFix" result="effect1_dropShadow_387_1374"/>
<feBlend mode="normal" in="SourceGraphic" in2="effect1_dropShadow_387_1374" result="shape"/>
</filter>
</defs>
</svg>
