<svg width="752" height="65" viewBox="0 0 752 65" fill="none" xmlns="http://www.w3.org/2000/svg">
<path d="M44.42 1.11H50.23V64.53H44.42V1.11ZM16.84 6.01C26.22 6.01 32.94 14.62 32.94 28.06C32.94 41.57 26.22 50.18 16.84 50.18C7.53 50.18 0.81 41.57 0.81 28.06C0.81 14.62 7.53 6.01 16.84 6.01ZM16.84 11.26C10.68 11.26 6.34 17.84 6.34 28.06C6.34 38.35 10.68 45.07 16.84 45.07C23.07 45.07 27.34 38.35 27.34 28.06C27.34 17.84 23.07 11.26 16.84 11.26ZM76.9645 22.6H82.7045V34.57H76.9645V22.6ZM100.205 22.6H105.945V34.57H100.205V22.6ZM62.8245 32.47H120.015V37.16H62.8245V32.47ZM91.3845 41.92C104.965 41.92 113.085 45.91 113.085 53.12C113.085 60.33 104.965 64.39 91.3845 64.39C77.8045 64.39 69.6845 60.33 69.6845 53.12C69.6845 45.91 77.8045 41.92 91.3845 41.92ZM91.3845 46.4C81.5145 46.4 75.5645 48.85 75.5645 53.12C75.5645 57.46 81.5145 59.84 91.3845 59.84C101.325 59.84 107.205 57.46 107.205 53.12C107.205 48.85 101.325 46.4 91.3845 46.4ZM91.4545 2.3C105.175 2.3 113.715 6.71 113.715 14.13C113.715 21.48 105.175 25.82 91.4545 25.82C77.6645 25.82 69.1945 21.48 69.1945 14.13C69.1945 6.71 77.6645 2.3 91.4545 2.3ZM91.4545 6.85C81.3745 6.85 75.1445 9.51 75.1445 14.13C75.1445 18.68 81.3745 21.34 91.4545 21.34C101.535 21.34 107.765 18.68 107.765 14.13C107.765 9.51 101.535 6.85 91.4545 6.85ZM170.549 0.969996H176.359V35.9H170.549V0.969996ZM173.909 16.16H185.739V21.06H173.909V16.16ZM136.179 39.12H176.359V53.26H142.059V60.96H136.319V49.06H170.689V43.53H136.179V39.12ZM136.319 59.28H178.669V63.76H136.319V59.28ZM127.429 6.85H164.809V11.4H127.429V6.85ZM146.119 14.2C155.219 14.2 161.239 18.19 161.239 24.63C161.239 31 155.219 34.92 146.119 34.92C136.879 34.92 130.929 31 130.929 24.63C130.929 18.19 136.879 14.2 146.119 14.2ZM146.119 18.47C140.239 18.47 136.459 20.85 136.459 24.63C136.459 28.34 140.239 30.72 146.119 30.72C151.929 30.72 155.709 28.34 155.709 24.63C155.709 20.85 151.929 18.47 146.119 18.47ZM143.179 0.479998H148.989V10H143.179V0.479998ZM213.644 30.44H218.754C232.404 30.44 239.894 30.16 248.784 28.62L249.414 33.24C240.244 34.85 232.544 35.06 218.754 35.06H213.644V30.44ZM213.644 5.03H243.744V9.72H219.384V32.82H213.644V5.03ZM217.494 17.49H241.994V22.18H217.494V17.49ZM255.994 1.25H261.874V38.91H255.994V1.25ZM220.994 42.06H261.874V63.62H220.994V42.06ZM256.134 46.75H226.664V58.93H256.134V46.75ZM302.958 2.23C316.888 2.23 325.218 6.15 325.218 13.22C325.218 20.29 316.888 24.21 302.958 24.21C288.958 24.21 280.698 20.29 280.698 13.22C280.698 6.15 288.958 2.23 302.958 2.23ZM302.958 6.64C292.598 6.64 286.648 9.02 286.648 13.22C286.648 17.42 292.598 19.8 302.958 19.8C313.248 19.8 319.198 17.42 319.198 13.22C319.198 9.02 313.248 6.64 302.958 6.64ZM274.328 28.41H331.518V33.1H274.328V28.41ZM281.258 38.49H324.238V52.77H287.138V60.47H281.398V48.57H318.498V42.97H281.258V38.49ZM281.398 59.21H326.128V63.76H281.398V59.21ZM389.523 16.09H405.483V20.92H389.523V16.09ZM372.933 5.03H377.623V12.8C377.623 25.05 370.763 35.27 360.193 39.54L357.183 34.92C366.563 31.42 372.933 22.46 372.933 12.8V5.03ZM374.053 5.03H378.743V13.01C378.743 21.83 384.903 30.16 394.073 33.52L390.923 38C380.843 34.08 374.053 24.28 374.053 13.01V5.03ZM403.313 1.25H409.123V48.57H403.313V1.25ZM368.453 58.3H410.663V63.06H368.453V58.3ZM368.453 43.32H374.263V60.54H368.453V43.32ZM424.168 31.42H428.228C438.168 31.42 444.048 31.21 451.118 29.81L451.678 34.57C444.398 35.97 438.378 36.25 428.228 36.25H424.168V31.42ZM424.168 5.8H448.668V10.56H429.768V34.01H424.168V5.8ZM428.018 18.4H447.898V22.95H428.018V18.4ZM469.248 1.18H474.778V39.54H469.248V1.18ZM459.028 17.7H470.998V22.46H459.028V17.7ZM455.318 2.37H460.778V39.19H455.318V2.37ZM432.358 42.9H474.778V64.46H469.038V47.66H432.358V42.9ZM485.762 11.96H517.122V16.72H485.762V11.96ZM501.442 20.92C509.352 20.92 515.092 26.87 515.092 35.41C515.092 43.88 509.352 49.83 501.442 49.83C493.602 49.83 487.862 43.88 487.862 35.41C487.862 26.87 493.602 20.92 501.442 20.92ZM501.442 25.89C496.612 25.89 493.112 29.81 493.112 35.41C493.112 41.01 496.612 44.93 501.442 44.93C506.342 44.93 509.912 41.01 509.912 35.41C509.912 29.81 506.342 25.89 501.442 25.89ZM533.852 1.18H539.452V64.46H533.852V1.18ZM523.772 27.78H535.742V32.61H523.772V27.78ZM520.342 2.58H525.802V61.38H520.342V2.58ZM498.642 3H504.382V14.9H498.642V3ZM575.637 7.41H580.677V10.07C580.677 21.41 568.637 29.74 555.897 31.91L553.657 27.29C564.787 25.68 575.637 18.4 575.637 10.07V7.41ZM577.107 7.41H582.077V10.07C582.077 18.4 592.997 25.68 604.057 27.29L601.887 31.91C589.077 29.74 577.107 21.41 577.107 10.07V7.41ZM575.847 40.31H581.587V64.46H575.847V40.31ZM550.297 37.23H607.487V41.99H550.297V37.23ZM555.617 5.1H601.957V9.79H555.617V5.1ZM639.611 23.79H651.721V28.62H639.611V23.79ZM627.781 7.13H632.331V19.17C632.331 32.4 626.801 45.21 617.561 50.88L613.921 46.47C622.601 41.36 627.781 30.02 627.781 19.17V7.13ZM628.901 7.13H633.381V18.96C633.381 29.11 638.141 39.89 646.471 44.93L643.111 49.48C634.011 43.88 628.901 31.28 628.901 18.96V7.13ZM662.851 1.18H668.451V64.46H662.851V1.18ZM650.041 2.51H655.501V61.31H650.041V2.51ZM693.086 33.73H698.826V52.7H693.086V33.73ZM716.466 33.73H722.276V52.7H716.466V33.73ZM679.086 51.58H736.416V56.41H679.086V51.58ZM707.646 5.17C721.016 5.17 730.606 11.54 730.606 21.48C730.606 31.35 721.016 37.72 707.646 37.72C694.206 37.72 684.616 31.35 684.616 21.48C684.616 11.54 694.206 5.17 707.646 5.17ZM707.646 9.79C697.496 9.79 690.216 14.41 690.216 21.48C690.216 28.48 697.496 33.1 707.646 33.1C717.796 33.1 725.006 28.48 725.006 21.48C725.006 14.41 717.796 9.79 707.646 9.79ZM747.4 59.35C746.374 59.35 745.487 58.9767 744.74 58.23C744.04 57.4833 743.69 56.5733 743.69 55.5C743.69 54.38 744.04 53.47 744.74 52.77C745.487 52.07 746.374 51.72 747.4 51.72C748.427 51.72 749.29 52.07 749.99 52.77C750.737 53.47 751.11 54.38 751.11 55.5C751.11 56.5733 750.737 57.4833 749.99 58.23C749.29 58.9767 748.427 59.35 747.4 59.35Z" fill="black"/>
</svg>
