<svg width="106" height="37" viewBox="0 0 106 37" fill="none" xmlns="http://www.w3.org/2000/svg">
<g clip-path="url(#clip0_79_4011)">
<path fill-rule="evenodd" clip-rule="evenodd" d="M84.585 7.47153H88.2147V11.088H92.1656V7.47153H95.8595V3.85508H92.1656V0.20282H88.2147V3.85508H84.585V7.47153ZM5.6531 34.8393C7.3234 35.8419 9.35775 36.3432 11.7562 36.3432C13.3408 36.3432 14.6471 36.188 15.6749 35.8777C16.7028 35.5674 17.7628 34.9945 18.8549 34.159L17.1204 31.0797C16.3067 31.6526 15.4929 32.0703 14.6792 32.3329C13.8869 32.5716 12.9982 32.6909 12.0131 32.6909C9.91451 32.6909 8.32987 31.9748 7.25916 30.5426C6.18845 29.1103 5.6531 27.0574 5.6531 24.3838C5.6531 21.6626 6.13492 19.55 7.09856 18.0461C8.06219 16.5184 9.46482 15.7545 11.3065 15.7545C12.2487 15.7545 13.0303 15.8858 13.6513 16.1484V18.798H18.6943V14.2864C17.6879 13.5226 16.5957 12.9735 15.418 12.6393C14.2616 12.2813 12.859 12.1022 11.2101 12.1022C8.85452 12.1022 6.88441 12.6274 5.29977 13.6777C3.73654 14.728 2.56946 16.1722 1.79856 18.0103C1.04906 19.8484 0.674316 21.9729 0.674316 24.3838C0.674316 26.7471 1.09189 28.8358 1.92704 30.65C2.76219 32.4403 4.00421 33.8367 5.6531 34.8393ZM20.8271 32.1538H20.2168V35.8061H28.9537V32.1538H28.3113C27.9044 32.1538 27.6154 32.0464 27.444 31.8316C27.2727 31.6168 27.1871 31.2826 27.1871 30.829V24.348C27.1871 23.4171 27.4012 22.7248 27.8295 22.2713C28.2792 21.8177 28.8895 21.5909 29.6604 21.5909C30.3671 21.5909 30.8917 21.7938 31.2343 22.1997C31.577 22.6055 31.7483 23.25 31.7483 24.1332V35.8061H38.815V32.1538H38.0762C37.241 32.1538 36.8234 31.7122 36.8234 30.829V24.0974C36.8234 22.1161 36.4166 20.6242 35.6028 19.6216C34.8105 18.5951 33.5364 18.0819 31.7804 18.0819C30.6883 18.0819 29.7461 18.2251 28.9537 18.5116C28.1828 18.798 27.3905 19.3232 26.5768 20.0871V12.1022H20.2168V15.7545H20.8592C21.3089 15.7545 21.6301 15.8738 21.8228 16.1126C22.0156 16.3513 22.1119 16.7093 22.1119 17.1868V30.7932C22.1119 31.7003 21.6836 32.1538 20.8271 32.1538ZM40.7082 30.3277C40.7082 34.338 42.5498 36.3432 46.233 36.3432C47.5607 36.3432 48.6528 36.1284 49.5094 35.6987C50.3874 35.269 51.2118 34.5409 51.9827 33.5145L52.2076 35.8061H57.2827V32.1538H56.6403C56.1906 32.1538 55.8694 32.0464 55.6767 31.8316C55.4839 31.5929 55.3876 31.2467 55.3876 30.7932V23.5961C55.3876 23.1426 55.4625 22.8084 55.6124 22.5935C55.7837 22.3787 56.0728 22.2713 56.4797 22.2713H57.2827V18.619H48.5458V22.2713H49.2203C49.6272 22.2713 49.9056 22.3787 50.0555 22.5935C50.2268 22.8084 50.3124 23.1426 50.3124 23.5961V30.1129C50.3124 31.0438 50.0983 31.7361 49.67 32.1897C49.2631 32.6432 48.6849 32.87 47.9354 32.87C47.2074 32.87 46.6613 32.6671 46.2973 32.2613C45.9546 31.8555 45.7833 31.199 45.7833 30.2919V18.619H38.7167V22.2713H39.4554C40.2906 22.2713 40.7082 22.7129 40.7082 23.5961V30.3277ZM58.9083 32.1538H58.298V35.8061H67.0671V32.1538H66.4567C66.0285 32.1538 65.718 32.0464 65.5252 31.8316C65.3539 31.6168 65.2683 31.2826 65.2683 30.829V25.1358C65.2683 24.1571 65.461 23.4409 65.8464 22.9874C66.2533 22.51 66.9064 22.2713 67.8058 22.2713H70.4077V18.619H68.5446C67.7737 18.619 67.0456 18.7622 66.3604 19.0487C65.6751 19.3351 65.1398 19.8006 64.7543 20.4451L64.3689 18.619H58.3301V22.2713H59.0046C59.4329 22.2713 59.7327 22.3906 59.904 22.6293C60.0968 22.8442 60.1931 23.1664 60.1931 23.5961V30.7932C60.1931 31.2467 60.086 31.5929 59.8719 31.8316C59.6792 32.0464 59.358 32.1538 58.9083 32.1538ZM74.2063 35.3406C75.5126 36.009 76.9902 36.3432 78.639 36.3432C80.2451 36.3432 81.53 36.1761 82.4936 35.8419C83.4786 35.5316 84.4744 34.9587 85.4809 34.1232L83.8427 31.1871C82.7077 32.0942 81.3051 32.5477 79.6348 32.5477C78.1572 32.5477 77.0116 32.13 76.1978 31.2945C75.4055 30.459 75.0093 29.17 75.0093 27.4274C75.0093 25.5893 75.3413 24.2048 76.0051 23.2738C76.6689 22.3429 77.5469 21.8774 78.639 21.8774C79.1958 21.8774 79.6562 21.9251 80.0203 22.0206C80.3843 22.1161 80.7376 22.2832 81.0803 22.5219V24.5271H85.3203V20.4451C84.3566 19.6097 83.3716 19.0129 82.3651 18.6548C81.3801 18.2729 80.1487 18.0819 78.6712 18.0819C75.973 18.0819 73.853 18.8816 72.3112 20.4809C70.7693 22.0803 69.9984 24.3958 69.9984 27.4274C69.9984 29.3371 70.3732 30.9603 71.1227 32.2971C71.8722 33.6338 72.9001 34.6484 74.2063 35.3406ZM87.4535 32.1538H86.8432V35.8061H95.5802V32.1538H94.9378C94.5309 32.1538 94.2418 32.0464 94.0705 31.8316C93.8992 31.6168 93.8135 31.2826 93.8135 30.829V24.348C93.8135 23.4171 94.0277 22.7248 94.456 22.2713C94.9057 21.8177 95.516 21.5909 96.2869 21.5909C96.9935 21.5909 97.5182 21.7938 97.8608 22.1997C98.2034 22.6055 98.3747 23.25 98.3747 24.1332V35.8061H105.441V32.1538H104.703C103.867 32.1538 103.45 31.7122 103.45 30.829V24.0974C103.45 22.1161 103.043 20.6242 102.229 19.6216C101.437 18.5951 100.163 18.0819 98.4069 18.0819C97.3148 18.0819 96.3725 18.2251 95.5802 18.5116C94.8093 18.798 94.017 19.3232 93.2032 20.0871V12.1022H86.8432V15.7545H87.4856C87.9353 15.7545 88.2566 15.8738 88.4493 16.1126C88.642 16.3513 88.7384 16.7093 88.7384 17.1868V30.7932C88.7384 31.7003 88.3101 32.1538 87.4535 32.1538Z" fill="#281A47"/>
</g>
<defs>
<clipPath id="clip0_79_4011">
<rect width="106" height="37" fill="white"/>
</clipPath>
</defs>
</svg>
