<svg width="557" height="223" viewBox="0 0 557 223" fill="none" xmlns="http://www.w3.org/2000/svg">
<path d="M62.7 194.291C54.8 194.291 47.5 192.991 40.8 190.391C34.1 187.691 28.3 183.941 23.4 179.141C18.5 174.341 14.65 168.691 11.85 162.191C9.15 155.691 7.8 148.591 7.8 140.891C7.8 133.191 9.15 126.091 11.85 119.591C14.65 113.091 18.5 107.441 23.4 102.641C28.4 97.8406 34.25 94.1406 40.95 91.5406C47.65 88.8406 54.95 87.4906 62.85 87.4906C70.45 87.4906 77.6 88.7906 84.3 91.3906C91 93.8906 96.65 97.6906 101.25 102.791L94.2 109.841C89.9 105.441 85.15 102.291 79.95 100.391C74.75 98.3906 69.15 97.3906 63.15 97.3906C56.85 97.3906 51 98.4906 45.6 100.691C40.2 102.791 35.5 105.841 31.5 109.841C27.5 113.741 24.35 118.341 22.05 123.641C19.85 128.841 18.75 134.591 18.75 140.891C18.75 147.191 19.85 152.991 22.05 158.291C24.35 163.491 27.5 168.091 31.5 172.091C35.5 175.991 40.2 179.041 45.6 181.241C51 183.341 56.85 184.391 63.15 184.391C69.15 184.391 74.75 183.391 79.95 181.391C85.15 179.391 89.9 176.191 94.2 171.791L101.25 178.841C96.65 183.941 91 187.791 84.3 190.391C77.6 192.991 70.4 194.291 62.7 194.291ZM162.863 113.891C169.263 113.891 174.863 115.141 179.663 117.641C184.563 120.041 188.363 123.741 191.063 128.741C193.863 133.741 195.263 140.041 195.263 147.641V193.391H184.613V148.691C184.613 140.391 182.513 134.141 178.313 129.941C174.213 125.641 168.413 123.491 160.913 123.491C155.313 123.491 150.413 124.641 146.213 126.941C142.113 129.141 138.913 132.391 136.613 136.691C134.413 140.891 133.313 145.991 133.313 151.991V193.391H122.663V82.0906H133.313V136.241L131.213 132.191C133.713 126.491 137.713 122.041 143.213 118.841C148.713 115.541 155.263 113.891 162.863 113.891ZM256.58 194.141C249.88 194.141 244.03 192.891 239.03 190.391C234.03 187.891 230.13 184.141 227.33 179.141C224.63 174.141 223.28 167.891 223.28 160.391V114.641H233.93V159.191C233.93 167.591 235.98 173.941 240.08 178.241C244.28 182.441 250.13 184.541 257.63 184.541C263.13 184.541 267.88 183.441 271.88 181.241C275.98 178.941 279.08 175.641 281.18 171.341C283.38 167.041 284.48 161.891 284.48 155.891V114.641H295.13V193.391H284.93V171.791L286.58 175.691C284.08 181.491 280.18 186.041 274.88 189.341C269.68 192.541 263.58 194.141 256.58 194.141ZM324.811 193.391V114.641H335.011V136.091L333.961 132.341C336.161 126.341 339.861 121.791 345.061 118.691C350.261 115.491 356.711 113.891 364.411 113.891V124.241C364.011 124.241 363.611 124.241 363.211 124.241C362.811 124.141 362.411 124.091 362.011 124.091C353.711 124.091 347.211 126.641 342.511 131.741C337.811 136.741 335.461 143.891 335.461 153.191V193.391H324.811ZM415.812 194.141C408.012 194.141 401.012 192.441 394.812 189.041C388.712 185.541 383.912 180.791 380.412 174.791C376.912 168.691 375.162 161.741 375.162 153.941C375.162 146.041 376.912 139.091 380.412 133.091C383.912 127.091 388.712 122.391 394.812 118.991C401.012 115.591 408.012 113.891 415.812 113.891C422.512 113.891 428.562 115.191 433.962 117.791C439.362 120.391 443.612 124.291 446.712 129.491L438.762 134.891C436.062 130.891 432.712 127.941 428.712 126.041C424.712 124.141 420.362 123.191 415.662 123.191C410.062 123.191 405.012 124.491 400.512 127.091C396.012 129.591 392.462 133.141 389.862 137.741C387.262 142.341 385.962 147.741 385.962 153.941C385.962 160.141 387.262 165.541 389.862 170.141C392.462 174.741 396.012 178.341 400.512 180.941C405.012 183.441 410.062 184.691 415.662 184.691C420.362 184.691 424.712 183.741 428.712 181.841C432.712 179.941 436.062 177.041 438.762 173.141L446.712 178.541C443.612 183.641 439.362 187.541 433.962 190.241C428.562 192.841 422.512 194.141 415.812 194.141ZM506.661 113.891C513.061 113.891 518.661 115.141 523.461 117.641C528.361 120.041 532.161 123.741 534.861 128.741C537.661 133.741 539.061 140.041 539.061 147.641V193.391H528.411V148.691C528.411 140.391 526.311 134.141 522.111 129.941C518.011 125.641 512.211 123.491 504.711 123.491C499.111 123.491 494.211 124.641 490.011 126.941C485.911 129.141 482.711 132.391 480.411 136.691C478.211 140.891 477.111 145.991 477.111 151.991V193.391H466.461V82.0906H477.111V136.241L475.011 132.191C477.511 126.491 481.511 122.041 487.011 118.841C492.511 115.541 499.061 113.891 506.661 113.891Z" fill="white"/>
<g filter="url(#filter0_d_648_4674)">
<path d="M467.291 69.3V5.69999H476.741V69.3H467.291ZM439.391 42V33.15H504.641V42H439.391Z" fill="#D5C1F9"/>
</g>
<defs>
<filter id="filter0_d_648_4674" x="427.246" y="0.494218" width="89.54" height="87.8916" filterUnits="userSpaceOnUse" color-interpolation-filters="sRGB">
<feFlood flood-opacity="0" result="BackgroundImageFix"/>
<feColorMatrix in="SourceAlpha" type="matrix" values="0 0 0 0 0 0 0 0 0 0 0 0 0 0 0 0 0 0 127 0" result="hardAlpha"/>
<feOffset dy="6.94"/>
<feGaussianBlur stdDeviation="6.0725"/>
<feComposite in2="hardAlpha" operator="out"/>
<feColorMatrix type="matrix" values="0 0 0 0 0 0 0 0 0 0 0 0 0 0 0 0 0 0 0.25 0"/>
<feBlend mode="normal" in2="BackgroundImageFix" result="effect1_dropShadow_648_4674"/>
<feBlend mode="normal" in="SourceGraphic" in2="effect1_dropShadow_648_4674" result="shape"/>
</filter>
</defs>
</svg>
