<svg width="371" height="155" viewBox="0 0 371 155" fill="none" xmlns="http://www.w3.org/2000/svg">
<path d="M41.8 130.676C36.5333 130.676 31.6667 129.81 27.2 128.076C22.7333 126.276 18.8667 123.776 15.6 120.576C12.3333 117.376 9.76667 113.61 7.9 109.276C6.1 104.943 5.2 100.21 5.2 95.0762C5.2 89.9428 6.1 85.2095 7.9 80.8762C9.76667 76.5428 12.3333 72.7762 15.6 69.5762C18.9333 66.3762 22.8333 63.9095 27.3 62.1762C31.7667 60.3762 36.6333 59.4762 41.9 59.4762C46.9667 59.4762 51.7333 60.3428 56.2 62.0762C60.6667 63.7428 64.4333 66.2762 67.5 69.6762L62.8 74.3762C59.9333 71.4428 56.7667 69.3428 53.3 68.0762C49.8333 66.7428 46.1 66.0762 42.1 66.0762C37.9 66.0762 34 66.8095 30.4 68.2762C26.8 69.6762 23.6667 71.7095 21 74.3762C18.3333 76.9762 16.2333 80.0428 14.7 83.5762C13.2333 87.0428 12.5 90.8762 12.5 95.0762C12.5 99.2762 13.2333 103.143 14.7 106.676C16.2333 110.143 18.3333 113.21 21 115.876C23.6667 118.476 26.8 120.51 30.4 121.976C34 123.376 37.9 124.076 42.1 124.076C46.1 124.076 49.8333 123.41 53.3 122.076C56.7667 120.743 59.9333 118.61 62.8 115.676L67.5 120.376C64.4333 123.776 60.6667 126.343 56.2 128.076C51.7333 129.81 46.9333 130.676 41.8 130.676ZM108.575 77.0762C112.842 77.0762 116.575 77.9095 119.775 79.5762C123.042 81.1762 125.575 83.6428 127.375 86.9762C129.242 90.3095 130.175 94.5095 130.175 99.5762V130.076H123.075V100.276C123.075 94.7428 121.675 90.5762 118.875 87.7762C116.142 84.9095 112.275 83.4762 107.275 83.4762C103.542 83.4762 100.275 84.2428 97.475 85.7762C94.7417 87.2428 92.6083 89.4095 91.075 92.2762C89.6083 95.0762 88.875 98.4762 88.875 102.476V130.076H81.775V55.8762H88.875V91.9762L87.475 89.2762C89.1417 85.4762 91.8083 82.5095 95.475 80.3762C99.1417 78.1762 103.508 77.0762 108.575 77.0762ZM171.053 130.576C166.586 130.576 162.686 129.743 159.353 128.076C156.02 126.41 153.42 123.91 151.553 120.576C149.753 117.243 148.853 113.076 148.853 108.076V77.5762H155.953V107.276C155.953 112.876 157.32 117.11 160.053 119.976C162.853 122.776 166.753 124.176 171.753 124.176C175.42 124.176 178.586 123.443 181.253 121.976C183.986 120.443 186.053 118.243 187.453 115.376C188.92 112.51 189.653 109.076 189.653 105.076V77.5762H196.753V130.076H189.953V115.676L191.053 118.276C189.386 122.143 186.786 125.176 183.253 127.376C179.786 129.51 175.72 130.576 171.053 130.576ZM216.541 130.076V77.5762H223.341V91.8762L222.641 89.3762C224.107 85.3762 226.574 82.3428 230.041 80.2762C233.507 78.1428 237.807 77.0762 242.941 77.0762V83.9762C242.674 83.9762 242.407 83.9762 242.141 83.9762C241.874 83.9095 241.607 83.8762 241.341 83.8762C235.807 83.8762 231.474 85.5762 228.341 88.9762C225.207 92.3095 223.641 97.0762 223.641 103.276V130.076H216.541ZM277.208 130.576C272.008 130.576 267.341 129.443 263.208 127.176C259.141 124.843 255.941 121.676 253.608 117.676C251.274 113.61 250.108 108.976 250.108 103.776C250.108 98.5095 251.274 93.8762 253.608 89.8762C255.941 85.8762 259.141 82.7428 263.208 80.4762C267.341 78.2095 272.008 77.0762 277.208 77.0762C281.674 77.0762 285.708 77.9428 289.308 79.6762C292.908 81.4095 295.741 84.0095 297.808 87.4762L292.508 91.0762C290.708 88.4095 288.474 86.4428 285.808 85.1762C283.141 83.9095 280.241 83.2762 277.108 83.2762C273.374 83.2762 270.008 84.1428 267.008 85.8762C264.008 87.5428 261.641 89.9095 259.908 92.9762C258.174 96.0428 257.308 99.6428 257.308 103.776C257.308 107.91 258.174 111.51 259.908 114.576C261.641 117.643 264.008 120.043 267.008 121.776C270.008 123.443 273.374 124.276 277.108 124.276C280.241 124.276 283.141 123.643 285.808 122.376C288.474 121.11 290.708 119.176 292.508 116.576L297.808 120.176C295.741 123.576 292.908 126.176 289.308 127.976C285.708 129.71 281.674 130.576 277.208 130.576ZM337.774 77.0762C342.041 77.0762 345.774 77.9095 348.974 79.5762C352.241 81.1762 354.774 83.6428 356.574 86.9762C358.441 90.3095 359.374 94.5095 359.374 99.5762V130.076H352.274V100.276C352.274 94.7428 350.874 90.5762 348.074 87.7762C345.341 84.9095 341.474 83.4762 336.474 83.4762C332.741 83.4762 329.474 84.2428 326.674 85.7762C323.941 87.2428 321.808 89.4095 320.274 92.2762C318.808 95.0762 318.074 98.4762 318.074 102.476V130.076H310.974V55.8762H318.074V91.9762L316.674 89.2762C318.341 85.4762 321.008 82.5095 324.674 80.3762C328.341 78.1762 332.708 77.0762 337.774 77.0762Z" fill="#281A47"/>
<g filter="url(#filter0_d_757_5645)">
<path d="M311.272 48.2V5.8H317.572V48.2H311.272ZM292.672 30V24.1H336.172V30H292.672Z" fill="#D5C1F9"/>
</g>
<defs>
<filter id="filter0_d_757_5645" x="280.527" y="0.595781" width="67.79" height="66.6884" filterUnits="userSpaceOnUse" color-interpolation-filters="sRGB">
<feFlood flood-opacity="0" result="BackgroundImageFix"/>
<feColorMatrix in="SourceAlpha" type="matrix" values="0 0 0 0 0 0 0 0 0 0 0 0 0 0 0 0 0 0 127 0" result="hardAlpha"/>
<feOffset dy="6.94"/>
<feGaussianBlur stdDeviation="6.0725"/>
<feComposite in2="hardAlpha" operator="out"/>
<feColorMatrix type="matrix" values="0 0 0 0 0 0 0 0 0 0 0 0 0 0 0 0 0 0 0.25 0"/>
<feBlend mode="normal" in2="BackgroundImageFix" result="effect1_dropShadow_757_5645"/>
<feBlend mode="normal" in="SourceGraphic" in2="effect1_dropShadow_757_5645" result="shape"/>
</filter>
</defs>
</svg>
